<?xml version="1.0" encoding="utf-8" standalone="no"?>
<!DOCTYPE svg PUBLIC "-//W3C//DTD SVG 1.1//EN"
  "http://www.w3.org/Graphics/SVG/1.1/DTD/svg11.dtd">
<!-- Created with matplotlib (http://matplotlib.org/) -->
<svg height="554pt" version="1.1" viewBox="0 0 554 554" width="554pt" xmlns="http://www.w3.org/2000/svg" xmlns:xlink="http://www.w3.org/1999/xlink">
 <defs>
  <style type="text/css">
*{stroke-linecap:butt;stroke-linejoin:round;stroke-miterlimit:100000;}
  </style>
 </defs>
 <g id="figure_1">
  <g id="patch_1">
   <path d="M 0 554.4 
L 554.4 554.4 
L 554.4 0 
L 0 0 
L 0 554.4 
z
" style="fill:none;"/>
  </g>
  <g id="patch_2">
   <path d="M 0 554.4 
L 554.4 554.4 
L 554.4 0 
L 0 0 
z
" style="fill:#ffffff;"/>
  </g>
  <g id="axes_1">
   <g id="Poly3DCollection_1">
    <path clip-path="url(#p490a10a76c)" d="M 238.744997 234.029371 
L 284.691892 294.048543 
L 330.638786 234.029371 
z
" style="fill:#1f958b;stroke:#000000;"/>
    <path clip-path="url(#p490a10a76c)" d="M 196.613973 274.671273 
L 238.744997 234.029371 
L 284.691892 294.048543 
z
" style="fill:#297a8e;stroke:#000000;"/>
    <path clip-path="url(#p490a10a76c)" d="M 284.691892 294.048543 
L 330.638786 234.029371 
L 372.76981 274.671273 
z
" style="fill:#297a8e;stroke:#000000;"/>
    <path clip-path="url(#p490a10a76c)" d="M 238.744997 234.029371 
L 284.691892 189.458304 
L 330.638786 234.029371 
z
" style="fill:#2c718e;stroke:#000000;"/>
    <path clip-path="url(#p490a10a76c)" d="M 242.724026 345.221722 
L 284.691892 294.048543 
L 326.659757 345.221722 
z
" style="fill:#297a8e;stroke:#000000;"/>
    <path clip-path="url(#p490a10a76c)" d="M 196.613973 274.671273 
L 242.724026 345.221722 
L 284.691892 294.048543 
z
" style="fill:#20928c;stroke:#000000;"/>
    <path clip-path="url(#p490a10a76c)" d="M 284.691892 294.048543 
L 326.659757 345.221722 
L 372.76981 274.671273 
z
" style="fill:#20928c;stroke:#000000;"/>
    <path clip-path="url(#p490a10a76c)" d="M 242.724026 345.221722 
L 284.691892 402.639467 
L 326.659757 345.221722 
z
" style="fill:#238a8d;stroke:#000000;"/>
    <path clip-path="url(#p490a10a76c)" d="M 159.615957 313.22929 
L 196.613973 274.671273 
L 242.724026 345.221722 
z
" style="fill:#27808e;stroke:#000000;"/>
    <path clip-path="url(#p490a10a76c)" d="M 326.659757 345.221722 
L 372.76981 274.671273 
L 409.767827 313.22929 
z
" style="fill:#27808e;stroke:#000000;"/>
    <path clip-path="url(#p490a10a76c)" d="M 381.077569 116.629549 
L 284.691892 189.458304 
L 330.638786 234.029371 
z
" style="fill:#93d741;stroke:#000000;"/>
    <path clip-path="url(#p490a10a76c)" d="M 188.306215 116.629546 
L 238.744997 234.029371 
L 284.691892 189.458304 
z
" style="fill:#93d741;stroke:#000000;"/>
    <path clip-path="url(#p490a10a76c)" d="M 159.615957 313.22929 
L 205.863198 390.20699 
L 242.724026 345.221722 
z
" style="fill:#20928c;stroke:#000000;"/>
    <path clip-path="url(#p490a10a76c)" d="M 326.659757 345.221722 
L 363.520585 390.20699 
L 409.767827 313.22929 
z
" style="fill:#20928c;stroke:#000000;"/>
    <path clip-path="url(#p490a10a76c)" d="M 205.863198 390.20699 
L 242.724026 345.221722 
L 284.691892 402.639467 
z
" style="fill:#297b8e;stroke:#000000;"/>
    <path clip-path="url(#p490a10a76c)" d="M 284.691892 402.639467 
L 326.659757 345.221722 
L 363.520585 390.20699 
z
" style="fill:#297b8e;stroke:#000000;"/>
    <path clip-path="url(#p490a10a76c)" d="M 424.800134 133.347903 
L 330.638786 234.029371 
L 372.76981 274.671273 
z
" style="fill:#cde11d;stroke:#000000;"/>
    <path clip-path="url(#p490a10a76c)" d="M 144.58365 133.347903 
L 196.613973 274.671273 
L 238.744997 234.029371 
z
" style="fill:#cde11d;stroke:#000000;"/>
    <path clip-path="url(#p490a10a76c)" d="M 235.599731 106.394401 
L 333.784053 106.394401 
L 284.691892 189.458304 
z
" style="fill:#c8e020;stroke:#000000;"/>
    <path clip-path="url(#p490a10a76c)" d="M 129.074337 349.332708 
L 159.615957 313.22929 
L 205.863198 390.20699 
z
" style="fill:#26828e;stroke:#000000;"/>
    <path clip-path="url(#p490a10a76c)" d="M 363.520585 390.20699 
L 409.767827 313.22929 
L 440.309447 349.332708 
z
" style="fill:#26828e;stroke:#000000;"/>
    <path clip-path="url(#p490a10a76c)" d="M 381.077569 116.629549 
L 333.784053 106.394401 
L 284.691892 189.458304 
z
" style="fill:#25848e;stroke:#000000;"/>
    <path clip-path="url(#p490a10a76c)" d="M 188.306215 116.629546 
L 235.599731 106.394401 
L 284.691892 189.458304 
z
" style="fill:#25848e;stroke:#000000;"/>
    <path clip-path="url(#p490a10a76c)" d="M 205.863198 390.20699 
L 247.835725 449.78118 
L 284.691892 402.639467 
z
" style="fill:#23898e;stroke:#000000;"/>
    <path clip-path="url(#p490a10a76c)" d="M 284.691892 402.639467 
L 321.548059 449.78118 
L 363.520585 390.20699 
z
" style="fill:#23898e;stroke:#000000;"/>
    <path clip-path="url(#p490a10a76c)" d="M 106.146388 156.031434 
L 159.615957 313.22929 
L 196.613973 274.671273 
z
" style="fill:#f1e51d;stroke:#000000;"/>
    <path clip-path="url(#p490a10a76c)" d="M 463.237396 156.031434 
L 372.76981 274.671273 
L 409.767827 313.22929 
z
" style="fill:#f1e51d;stroke:#000000;"/>
    <path clip-path="url(#p490a10a76c)" d="M 424.800134 133.347903 
L 381.077569 116.629549 
L 330.638786 234.029371 
z
" style="fill:#2fb47c;stroke:#000000;"/>
    <path clip-path="url(#p490a10a76c)" d="M 144.58365 133.347903 
L 188.306215 116.629546 
L 238.744997 234.029371 
z
" style="fill:#2fb47c;stroke:#000000;"/>
    <path clip-path="url(#p490a10a76c)" d="M 235.599731 106.394401 
L 333.784053 106.394401 
L 284.691892 102.948903 
z
" style="fill:#440154;stroke:#000000;"/>
    <path clip-path="url(#p490a10a76c)" d="M 247.835725 449.78118 
L 284.691892 402.639467 
L 321.548059 449.78118 
z
" style="fill:#297a8e;stroke:#000000;"/>
    <path clip-path="url(#p490a10a76c)" d="M 129.074337 349.332708 
L 175.344398 428.397407 
L 205.863198 390.20699 
z
" style="fill:#20928c;stroke:#000000;"/>
    <path clip-path="url(#p490a10a76c)" d="M 363.520585 390.20699 
L 394.039386 428.397407 
L 440.309447 349.332708 
z
" style="fill:#20928c;stroke:#000000;"/>
    <path clip-path="url(#p490a10a76c)" d="M 175.344398 428.397407 
L 205.863198 390.20699 
L 247.835725 449.78118 
z
" style="fill:#297b8e;stroke:#000000;"/>
    <path clip-path="url(#p490a10a76c)" d="M 321.548059 449.78118 
L 363.520585 390.20699 
L 394.039386 428.397407 
z
" style="fill:#297b8e;stroke:#000000;"/>
    <path clip-path="url(#p490a10a76c)" d="M 106.146388 156.031434 
L 144.58365 133.347903 
L 196.613973 274.671273 
z
" style="fill:#6ccd5a;stroke:#000000;"/>
    <path clip-path="url(#p490a10a76c)" d="M 463.237396 156.031434 
L 424.800134 133.347903 
L 372.76981 274.671273 
z
" style="fill:#6ccd5a;stroke:#000000;"/>
    <path clip-path="url(#p490a10a76c)" d="M 74.609222 183.942217 
L 129.074337 349.332708 
L 159.615957 313.22929 
z
" style="fill:#fde725;stroke:#000000;"/>
    <path clip-path="url(#p490a10a76c)" d="M 494.774562 183.942217 
L 409.767827 313.22929 
L 440.309447 349.332708 
z
" style="fill:#fde725;stroke:#000000;"/>
    <path clip-path="url(#p490a10a76c)" d="M 106.242662 381.68428 
L 129.074337 349.332708 
L 175.344398 428.397407 
z
" style="fill:#27808e;stroke:#000000;"/>
    <path clip-path="url(#p490a10a76c)" d="M 394.039386 428.397407 
L 440.309447 349.332708 
L 463.141122 381.68428 
z
" style="fill:#27808e;stroke:#000000;"/>
    <path clip-path="url(#p490a10a76c)" d="M 284.691892 42.019954 
L 235.599731 106.394401 
L 333.784053 106.394401 
z
" style="fill:#c8e020;stroke:#000000;"/>
    <path clip-path="url(#p490a10a76c)" d="M 284.691892 42.019954 
L 381.077569 116.629549 
L 333.784053 106.394401 
z
" style="fill:#25848e;stroke:#000000;"/>
    <path clip-path="url(#p490a10a76c)" d="M 188.306215 116.629546 
L 284.691892 42.019954 
L 235.599731 106.394401 
z
" style="fill:#25848e;stroke:#000000;"/>
    <path clip-path="url(#p490a10a76c)" d="M 74.609222 183.942217 
L 106.146388 156.031434 
L 159.615957 313.22929 
z
" style="fill:#93d741;stroke:#000000;"/>
    <path clip-path="url(#p490a10a76c)" d="M 494.774562 183.942217 
L 463.237396 156.031434 
L 409.767827 313.22929 
z
" style="fill:#93d741;stroke:#000000;"/>
    <path clip-path="url(#p490a10a76c)" d="M 247.835725 449.78118 
L 284.691892 493.977195 
L 321.548059 449.78118 
z
" style="fill:#23898e;stroke:#000000;"/>
    <path clip-path="url(#p490a10a76c)" d="M 175.344398 428.397407 
L 217.260577 484.981182 
L 247.835725 449.78118 
z
" style="fill:#238a8d;stroke:#000000;"/>
    <path clip-path="url(#p490a10a76c)" d="M 321.548059 449.78118 
L 352.123207 484.981182 
L 394.039386 428.397407 
z
" style="fill:#238a8d;stroke:#000000;"/>
    <path clip-path="url(#p490a10a76c)" d="M 106.242662 381.68428 
L 152.373122 457.421545 
L 175.344398 428.397407 
z
" style="fill:#20928c;stroke:#000000;"/>
    <path clip-path="url(#p490a10a76c)" d="M 394.039386 428.397407 
L 417.010662 457.421545 
L 463.141122 381.68428 
z
" style="fill:#20928c;stroke:#000000;"/>
    <path clip-path="url(#p490a10a76c)" d="M 217.260577 484.981182 
L 247.835725 449.78118 
L 284.691892 493.977195 
z
" style="fill:#297b8e;stroke:#000000;"/>
    <path clip-path="url(#p490a10a76c)" d="M 284.691892 493.977195 
L 321.548059 449.78118 
L 352.123207 484.981182 
z
" style="fill:#297b8e;stroke:#000000;"/>
    <path clip-path="url(#p490a10a76c)" d="M 51.432231 216.11602 
L 106.242662 381.68428 
L 129.074337 349.332708 
z
" style="fill:#f1e51d;stroke:#000000;"/>
    <path clip-path="url(#p490a10a76c)" d="M 517.951553 216.11602 
L 440.309447 349.332708 
L 463.141122 381.68428 
z
" style="fill:#f1e51d;stroke:#000000;"/>
    <path clip-path="url(#p490a10a76c)" d="M 333.71368 31.090376 
L 424.800134 133.347903 
L 381.077569 116.629549 
z
" style="fill:#2fb47c;stroke:#000000;"/>
    <path clip-path="url(#p490a10a76c)" d="M 144.58365 133.347903 
L 235.670104 31.090376 
L 188.306215 116.629546 
z
" style="fill:#2fb47c;stroke:#000000;"/>
    <path clip-path="url(#p490a10a76c)" d="M 152.373122 457.421545 
L 175.344398 428.397407 
L 217.260577 484.981182 
z
" style="fill:#297a8e;stroke:#000000;"/>
    <path clip-path="url(#p490a10a76c)" d="M 352.123207 484.981182 
L 394.039386 428.397407 
L 417.010662 457.421545 
z
" style="fill:#297a8e;stroke:#000000;"/>
    <path clip-path="url(#p490a10a76c)" d="M 51.432231 216.11602 
L 74.609222 183.942217 
L 129.074337 349.332708 
z
" style="fill:#93d741;stroke:#000000;"/>
    <path clip-path="url(#p490a10a76c)" d="M 517.951553 216.11602 
L 494.774562 183.942217 
L 440.309447 349.332708 
z
" style="fill:#93d741;stroke:#000000;"/>
    <path clip-path="url(#p490a10a76c)" d="M 333.71368 31.090376 
L 284.691892 42.019954 
L 381.077569 116.629549 
z
" style="fill:#93d741;stroke:#000000;"/>
    <path clip-path="url(#p490a10a76c)" d="M 235.670104 31.090376 
L 188.306215 116.629546 
L 284.691892 42.019954 
z
" style="fill:#93d741;stroke:#000000;"/>
    <path clip-path="url(#p490a10a76c)" d="M 92.228087 408.070609 
L 106.242662 381.68428 
L 152.373122 457.421545 
z
" style="fill:#297a8e;stroke:#000000;"/>
    <path clip-path="url(#p490a10a76c)" d="M 417.010662 457.421545 
L 463.141122 381.68428 
L 477.155697 408.070609 
z
" style="fill:#297a8e;stroke:#000000;"/>
    <path clip-path="url(#p490a10a76c)" d="M 106.146388 156.031434 
L 189.656645 38.347668 
L 144.58365 133.347903 
z
" style="fill:#6ccd5a;stroke:#000000;"/>
    <path clip-path="url(#p490a10a76c)" d="M 379.727139 38.347668 
L 463.237396 156.031434 
L 424.800134 133.347903 
z
" style="fill:#6ccd5a;stroke:#000000;"/>
    <path clip-path="url(#p490a10a76c)" d="M 531.533182 251.362884 
L 463.141122 381.68428 
L 477.155697 408.070609 
z
" style="fill:#cde11d;stroke:#000000;"/>
    <path clip-path="url(#p490a10a76c)" d="M 37.850601 251.362881 
L 92.228087 408.070609 
L 106.242662 381.68428 
z
" style="fill:#cde11d;stroke:#000000;"/>
    <path clip-path="url(#p490a10a76c)" d="M 531.533182 251.362884 
L 517.951553 216.11602 
L 463.141122 381.68428 
z
" style="fill:#6ccd5a;stroke:#000000;"/>
    <path clip-path="url(#p490a10a76c)" d="M 37.850601 251.362881 
L 51.432231 216.11602 
L 106.242662 381.68428 
z
" style="fill:#6ccd5a;stroke:#000000;"/>
    <path clip-path="url(#p490a10a76c)" d="M 217.260577 484.981182 
L 254.050656 517.135944 
L 284.691892 493.977195 
z
" style="fill:#20928c;stroke:#000000;"/>
    <path clip-path="url(#p490a10a76c)" d="M 284.691892 493.977195 
L 315.333128 517.135944 
L 352.123207 484.981182 
z
" style="fill:#20928c;stroke:#000000;"/>
    <path clip-path="url(#p490a10a76c)" d="M 152.373122 457.421545 
L 194.082709 502.065236 
L 217.260577 484.981182 
z
" style="fill:#20928c;stroke:#000000;"/>
    <path clip-path="url(#p490a10a76c)" d="M 352.123207 484.981182 
L 375.301075 502.065236 
L 417.010662 457.421545 
z
" style="fill:#20928c;stroke:#000000;"/>
    <path clip-path="url(#p490a10a76c)" d="M 379.727139 38.347668 
L 333.71368 31.090376 
L 424.800134 133.347903 
z
" style="fill:#cde11d;stroke:#000000;"/>
    <path clip-path="url(#p490a10a76c)" d="M 189.656645 38.347668 
L 144.58365 133.347903 
L 235.670104 31.090376 
z
" style="fill:#cde11d;stroke:#000000;"/>
    <path clip-path="url(#p490a10a76c)" d="M 235.670104 31.090376 
L 333.71368 31.090376 
L 284.691892 42.019954 
z
" style="fill:#2c718e;stroke:#000000;"/>
    <path clip-path="url(#p490a10a76c)" d="M 74.609222 183.942217 
L 148.921118 60.707659 
L 106.146388 156.031434 
z
" style="fill:#93d741;stroke:#000000;"/>
    <path clip-path="url(#p490a10a76c)" d="M 420.462666 60.707659 
L 494.774562 183.942217 
L 463.237396 156.031434 
z
" style="fill:#93d741;stroke:#000000;"/>
    <path clip-path="url(#p490a10a76c)" d="M 92.228087 408.070609 
L 137.958249 471.666653 
L 152.373122 457.421545 
z
" style="fill:#1f958b;stroke:#000000;"/>
    <path clip-path="url(#p490a10a76c)" d="M 417.010662 457.421545 
L 431.425535 471.666653 
L 477.155697 408.070609 
z
" style="fill:#1f958b;stroke:#000000;"/>
    <path clip-path="url(#p490a10a76c)" d="M 254.050656 517.135944 
L 284.691892 493.977195 
L 315.333128 517.135944 
z
" style="fill:#26828e;stroke:#000000;"/>
    <path clip-path="url(#p490a10a76c)" d="M 194.082709 502.065236 
L 217.260577 484.981182 
L 254.050656 517.135944 
z
" style="fill:#27808e;stroke:#000000;"/>
    <path clip-path="url(#p490a10a76c)" d="M 315.333128 517.135944 
L 352.123207 484.981182 
L 375.301075 502.065236 
z
" style="fill:#27808e;stroke:#000000;"/>
    <path clip-path="url(#p490a10a76c)" d="M 137.958249 471.666653 
L 152.373122 457.421545 
L 194.082709 502.065236 
z
" style="fill:#297a8e;stroke:#000000;"/>
    <path clip-path="url(#p490a10a76c)" d="M 375.301075 502.065236 
L 417.010662 457.421545 
L 431.425535 471.666653 
z
" style="fill:#297a8e;stroke:#000000;"/>
    <path clip-path="url(#p490a10a76c)" d="M 148.921118 60.707659 
L 106.146388 156.031434 
L 189.656645 38.347668 
z
" style="fill:#f1e51d;stroke:#000000;"/>
    <path clip-path="url(#p490a10a76c)" d="M 420.462666 60.707659 
L 379.727139 38.347668 
L 463.237396 156.031434 
z
" style="fill:#f1e51d;stroke:#000000;"/>
    <path clip-path="url(#p490a10a76c)" d="M 534.592815 288.280724 
L 531.533182 251.362884 
L 477.155697 408.070609 
z
" style="fill:#2fb47c;stroke:#000000;"/>
    <path clip-path="url(#p490a10a76c)" d="M 34.790968 288.280721 
L 37.850601 251.362881 
L 92.228087 408.070609 
z
" style="fill:#2fb47c;stroke:#000000;"/>
    <path clip-path="url(#p490a10a76c)" d="M 87.836333 424.099808 
L 92.228087 408.070609 
L 137.958249 471.666653 
z
" style="fill:#2c718e;stroke:#000000;"/>
    <path clip-path="url(#p490a10a76c)" d="M 431.425535 471.666653 
L 477.155697 408.070609 
L 481.547451 424.099808 
z
" style="fill:#2c718e;stroke:#000000;"/>
    <path clip-path="url(#p490a10a76c)" d="M 51.432231 216.11602 
L 115.596283 96.679576 
L 74.609222 183.942217 
z
" style="fill:#93d741;stroke:#000000;"/>
    <path clip-path="url(#p490a10a76c)" d="M 453.787501 96.679576 
L 517.951553 216.11602 
L 494.774562 183.942217 
z
" style="fill:#93d741;stroke:#000000;"/>
    <path clip-path="url(#p490a10a76c)" d="M 284.691892 19.169641 
L 235.670104 31.090376 
L 333.71368 31.090376 
z
" style="fill:#1f958b;stroke:#000000;"/>
    <path clip-path="url(#p490a10a76c)" d="M 534.592815 288.280724 
L 477.155697 408.070609 
L 481.547451 424.099808 
z
" style="fill:#93d741;stroke:#000000;"/>
    <path clip-path="url(#p490a10a76c)" d="M 34.790968 288.280721 
L 87.836333 424.099808 
L 92.228087 408.070609 
z
" style="fill:#93d741;stroke:#000000;"/>
    <path clip-path="url(#p490a10a76c)" d="M 189.656645 38.347668 
L 284.691892 19.169641 
L 235.670104 31.090376 
z
" style="fill:#297a8e;stroke:#000000;"/>
    <path clip-path="url(#p490a10a76c)" d="M 284.691892 19.169641 
L 379.727139 38.347668 
L 333.71368 31.090376 
z
" style="fill:#297a8e;stroke:#000000;"/>
    <path clip-path="url(#p490a10a76c)" d="M 115.596283 96.679576 
L 74.609222 183.942217 
L 148.921118 60.707659 
z
" style="fill:#fde725;stroke:#000000;"/>
    <path clip-path="url(#p490a10a76c)" d="M 453.787501 96.679576 
L 420.462666 60.707659 
L 494.774562 183.942217 
z
" style="fill:#fde725;stroke:#000000;"/>
    <path clip-path="url(#p490a10a76c)" d="M 477.780685 145.023533 
L 531.533182 251.362884 
L 517.951553 216.11602 
z
" style="fill:#6ccd5a;stroke:#000000;"/>
    <path clip-path="url(#p490a10a76c)" d="M 37.850601 251.362881 
L 91.603099 145.023533 
L 51.432231 216.11602 
z
" style="fill:#6ccd5a;stroke:#000000;"/>
    <path clip-path="url(#p490a10a76c)" d="M 526.603956 325.288111 
L 534.592815 288.280724 
L 481.547451 424.099808 
z
" style="fill:#25848e;stroke:#000000;"/>
    <path clip-path="url(#p490a10a76c)" d="M 42.779828 325.288111 
L 34.790968 288.280721 
L 87.836333 424.099808 
z
" style="fill:#25848e;stroke:#000000;"/>
    <path clip-path="url(#p490a10a76c)" d="M 238.217017 31.503819 
L 189.656645 38.347668 
L 284.691892 19.169641 
z
" style="fill:#20928c;stroke:#000000;"/>
    <path clip-path="url(#p490a10a76c)" d="M 331.166767 31.503819 
L 284.691892 19.169641 
L 379.727139 38.347668 
z
" style="fill:#20928c;stroke:#000000;"/>
    <path clip-path="url(#p490a10a76c)" d="M 148.921118 60.707659 
L 238.217017 31.503819 
L 189.656645 38.347668 
z
" style="fill:#27808e;stroke:#000000;"/>
    <path clip-path="url(#p490a10a76c)" d="M 331.166767 31.503819 
L 420.462666 60.707659 
L 379.727139 38.347668 
z
" style="fill:#27808e;stroke:#000000;"/>
    <path clip-path="url(#p490a10a76c)" d="M 490.846814 204.735705 
L 534.592815 288.280724 
L 531.533182 251.362884 
z
" style="fill:#2fb47c;stroke:#000000;"/>
    <path clip-path="url(#p490a10a76c)" d="M 34.790968 288.280721 
L 78.53697 204.735705 
L 37.850601 251.362881 
z
" style="fill:#2fb47c;stroke:#000000;"/>
    <path clip-path="url(#p490a10a76c)" d="M 91.603099 145.023533 
L 51.432231 216.11602 
L 115.596283 96.679576 
z
" style="fill:#f1e51d;stroke:#000000;"/>
    <path clip-path="url(#p490a10a76c)" d="M 477.780685 145.023533 
L 453.787501 96.679576 
L 517.951553 216.11602 
z
" style="fill:#f1e51d;stroke:#000000;"/>
    <path clip-path="url(#p490a10a76c)" d="M 130.556532 419.720189 
L 87.836333 424.099808 
L 137.958249 471.666653 
z
" style="fill:#93d741;stroke:#000000;"/>
    <path clip-path="url(#p490a10a76c)" d="M 438.827252 419.720189 
L 431.425535 471.666653 
L 481.547451 424.099808 
z
" style="fill:#93d741;stroke:#000000;"/>
    <path clip-path="url(#p490a10a76c)" d="M 392.045072 440.205123 
L 375.301075 502.065236 
L 431.425535 471.666653 
z
" style="fill:#cde11d;stroke:#000000;"/>
    <path clip-path="url(#p490a10a76c)" d="M 177.338711 440.205121 
L 137.958249 471.666653 
L 194.082709 502.065236 
z
" style="fill:#cde11d;stroke:#000000;"/>
    <path clip-path="url(#p490a10a76c)" d="M 339.789322 452.9994 
L 315.333128 517.135944 
L 375.301075 502.065236 
z
" style="fill:#f1e51d;stroke:#000000;"/>
    <path clip-path="url(#p490a10a76c)" d="M 229.594461 452.9994 
L 194.082709 502.065236 
L 254.050656 517.135944 
z
" style="fill:#f1e51d;stroke:#000000;"/>
    <path clip-path="url(#p490a10a76c)" d="M 284.691892 457.350635 
L 254.050656 517.135944 
L 315.333128 517.135944 
z
" style="fill:#fde725;stroke:#000000;"/>
    <path clip-path="url(#p490a10a76c)" d="M 91.488748 392.717034 
L 42.779828 325.288111 
L 87.836333 424.099808 
z
" style="fill:#c8e020;stroke:#000000;"/>
    <path clip-path="url(#p490a10a76c)" d="M 477.895036 392.717034 
L 526.603956 325.288111 
L 481.547451 424.099808 
z
" style="fill:#c8e020;stroke:#000000;"/>
    <path clip-path="url(#p490a10a76c)" d="M 238.217017 31.503819 
L 331.166767 31.503819 
L 284.691892 19.169641 
z
" style="fill:#297a8e;stroke:#000000;"/>
    <path clip-path="url(#p490a10a76c)" d="M 491.778331 276.377808 
L 526.603956 325.288111 
L 534.592815 288.280724 
z
" style="fill:#25848e;stroke:#000000;"/>
    <path clip-path="url(#p490a10a76c)" d="M 42.779828 325.288111 
L 77.605453 276.377808 
L 34.790968 288.280721 
z
" style="fill:#25848e;stroke:#000000;"/>
    <path clip-path="url(#p490a10a76c)" d="M 490.846814 204.735705 
L 477.780685 145.023533 
L 531.533182 251.362884 
z
" style="fill:#cde11d;stroke:#000000;"/>
    <path clip-path="url(#p490a10a76c)" d="M 78.53697 204.735705 
L 37.850601 251.362881 
L 91.603099 145.023533 
z
" style="fill:#cde11d;stroke:#000000;"/>
    <path clip-path="url(#p490a10a76c)" d="M 196.91943 63.871715 
L 148.921118 60.707659 
L 238.217017 31.503819 
z
" style="fill:#20928c;stroke:#000000;"/>
    <path clip-path="url(#p490a10a76c)" d="M 372.464354 63.871715 
L 331.166767 31.503819 
L 420.462666 60.707659 
z
" style="fill:#20928c;stroke:#000000;"/>
    <path clip-path="url(#p490a10a76c)" d="M 115.596283 96.679576 
L 196.91943 63.871715 
L 148.921118 60.707659 
z
" style="fill:#26828e;stroke:#000000;"/>
    <path clip-path="url(#p490a10a76c)" d="M 372.464354 63.871715 
L 453.787501 96.679576 
L 420.462666 60.707659 
z
" style="fill:#26828e;stroke:#000000;"/>
    <path clip-path="url(#p490a10a76c)" d="M 61.854183 360.681222 
L 91.488748 392.717034 
L 42.779828 325.288111 
z
" style="fill:#440154;stroke:#000000;"/>
    <path clip-path="url(#p490a10a76c)" d="M 477.895036 392.717034 
L 507.529601 360.681222 
L 526.603956 325.288111 
z
" style="fill:#440154;stroke:#000000;"/>
    <path clip-path="url(#p490a10a76c)" d="M 91.488748 392.717034 
L 130.556532 419.720189 
L 87.836333 424.099808 
z
" style="fill:#25848e;stroke:#000000;"/>
    <path clip-path="url(#p490a10a76c)" d="M 438.827252 419.720189 
L 477.895036 392.717034 
L 481.547451 424.099808 
z
" style="fill:#25848e;stroke:#000000;"/>
    <path clip-path="url(#p490a10a76c)" d="M 284.691892 54.088764 
L 238.217017 31.503819 
L 331.166767 31.503819 
z
" style="fill:#238a8d;stroke:#000000;"/>
    <path clip-path="url(#p490a10a76c)" d="M 392.045072 440.205123 
L 438.827252 419.720189 
L 431.425535 471.666653 
z
" style="fill:#2fb47c;stroke:#000000;"/>
    <path clip-path="url(#p490a10a76c)" d="M 130.556532 419.720189 
L 177.338711 440.205121 
L 137.958249 471.666653 
z
" style="fill:#2fb47c;stroke:#000000;"/>
    <path clip-path="url(#p490a10a76c)" d="M 491.778331 276.377808 
L 490.846814 204.735705 
L 534.592815 288.280724 
z
" style="fill:#93d741;stroke:#000000;"/>
    <path clip-path="url(#p490a10a76c)" d="M 77.605453 276.377808 
L 34.790968 288.280721 
L 78.53697 204.735705 
z
" style="fill:#93d741;stroke:#000000;"/>
    <path clip-path="url(#p490a10a76c)" d="M 91.488748 392.717034 
L 42.779828 325.288111 
L 77.605453 276.377808 
z
" style="fill:#c8e020;stroke:#000000;"/>
    <path clip-path="url(#p490a10a76c)" d="M 477.895036 392.717034 
L 491.778331 276.377808 
L 526.603956 325.288111 
z
" style="fill:#c8e020;stroke:#000000;"/>
    <path clip-path="url(#p490a10a76c)" d="M 339.789322 452.9994 
L 392.045072 440.205123 
L 375.301075 502.065236 
z
" style="fill:#6ccd5a;stroke:#000000;"/>
    <path clip-path="url(#p490a10a76c)" d="M 177.338711 440.205121 
L 229.594461 452.9994 
L 194.082709 502.065236 
z
" style="fill:#6ccd5a;stroke:#000000;"/>
    <path clip-path="url(#p490a10a76c)" d="M 229.594461 452.9994 
L 284.691892 457.350635 
L 254.050656 517.135944 
z
" style="fill:#93d741;stroke:#000000;"/>
    <path clip-path="url(#p490a10a76c)" d="M 284.691892 457.350635 
L 339.789322 452.9994 
L 315.333128 517.135944 
z
" style="fill:#93d741;stroke:#000000;"/>
    <path clip-path="url(#p490a10a76c)" d="M 196.91943 63.871715 
L 284.691892 54.088764 
L 238.217017 31.503819 
z
" style="fill:#297b8e;stroke:#000000;"/>
    <path clip-path="url(#p490a10a76c)" d="M 284.691892 54.088764 
L 372.464354 63.871715 
L 331.166767 31.503819 
z
" style="fill:#297b8e;stroke:#000000;"/>
    <path clip-path="url(#p490a10a76c)" d="M 91.603099 145.023533 
L 163.248273 114.447646 
L 115.596283 96.679576 
z
" style="fill:#27808e;stroke:#000000;"/>
    <path clip-path="url(#p490a10a76c)" d="M 406.135511 114.447646 
L 477.780685 145.023533 
L 453.787501 96.679576 
z
" style="fill:#27808e;stroke:#000000;"/>
    <path clip-path="url(#p490a10a76c)" d="M 163.248273 114.447646 
L 115.596283 96.679576 
L 196.91943 63.871715 
z
" style="fill:#20928c;stroke:#000000;"/>
    <path clip-path="url(#p490a10a76c)" d="M 406.135511 114.447646 
L 372.464354 63.871715 
L 453.787501 96.679576 
z
" style="fill:#20928c;stroke:#000000;"/>
    <path clip-path="url(#p490a10a76c)" d="M 91.488748 392.717034 
L 130.556532 419.720189 
L 77.605453 276.377808 
z
" style="fill:#25848e;stroke:#000000;"/>
    <path clip-path="url(#p490a10a76c)" d="M 438.827252 419.720189 
L 477.895036 392.717034 
L 491.778331 276.377808 
z
" style="fill:#25848e;stroke:#000000;"/>
    <path clip-path="url(#p490a10a76c)" d="M 429.973587 182.226882 
L 490.846814 204.735705 
L 477.780685 145.023533 
z
" style="fill:#297a8e;stroke:#000000;"/>
    <path clip-path="url(#p490a10a76c)" d="M 78.53697 204.735705 
L 139.410197 182.226882 
L 91.603099 145.023533 
z
" style="fill:#297a8e;stroke:#000000;"/>
    <path clip-path="url(#p490a10a76c)" d="M 243.274102 101.165192 
L 196.91943 63.871715 
L 284.691892 54.088764 
z
" style="fill:#23898e;stroke:#000000;"/>
    <path clip-path="url(#p490a10a76c)" d="M 326.109682 101.165192 
L 284.691892 54.088764 
L 372.464354 63.871715 
z
" style="fill:#23898e;stroke:#000000;"/>
    <path clip-path="url(#p490a10a76c)" d="M 139.410197 182.226882 
L 91.603099 145.023533 
L 163.248273 114.447646 
z
" style="fill:#20928c;stroke:#000000;"/>
    <path clip-path="url(#p490a10a76c)" d="M 429.973587 182.226882 
L 406.135511 114.447646 
L 477.780685 145.023533 
z
" style="fill:#20928c;stroke:#000000;"/>
    <path clip-path="url(#p490a10a76c)" d="M 163.248273 114.447646 
L 243.274102 101.165192 
L 196.91943 63.871715 
z
" style="fill:#297b8e;stroke:#000000;"/>
    <path clip-path="url(#p490a10a76c)" d="M 326.109682 101.165192 
L 406.135511 114.447646 
L 372.464354 63.871715 
z
" style="fill:#297b8e;stroke:#000000;"/>
    <path clip-path="url(#p490a10a76c)" d="M 77.605453 276.377808 
L 127.29307 268.529706 
L 78.53697 204.735705 
z
" style="fill:#2c718e;stroke:#000000;"/>
    <path clip-path="url(#p490a10a76c)" d="M 442.090714 268.529706 
L 491.778331 276.377808 
L 490.846814 204.735705 
z
" style="fill:#2c718e;stroke:#000000;"/>
    <path clip-path="url(#p490a10a76c)" d="M 130.556532 419.720189 
L 77.605453 276.377808 
L 127.29307 268.529706 
z
" style="fill:#93d741;stroke:#000000;"/>
    <path clip-path="url(#p490a10a76c)" d="M 438.827252 419.720189 
L 442.090714 268.529706 
L 491.778331 276.377808 
z
" style="fill:#93d741;stroke:#000000;"/>
    <path clip-path="url(#p490a10a76c)" d="M 392.045072 440.205123 
L 438.827252 419.720189 
L 442.090714 268.529706 
z
" style="fill:#2fb47c;stroke:#000000;"/>
    <path clip-path="url(#p490a10a76c)" d="M 130.556532 419.720189 
L 177.338711 440.205121 
L 127.29307 268.529706 
z
" style="fill:#2fb47c;stroke:#000000;"/>
    <path clip-path="url(#p490a10a76c)" d="M 243.274102 101.165192 
L 326.109682 101.165192 
L 284.691892 54.088764 
z
" style="fill:#297a8e;stroke:#000000;"/>
    <path clip-path="url(#p490a10a76c)" d="M 127.29307 268.529706 
L 78.53697 204.735705 
L 139.410197 182.226882 
z
" style="fill:#1f958b;stroke:#000000;"/>
    <path clip-path="url(#p490a10a76c)" d="M 442.090714 268.529706 
L 429.973587 182.226882 
L 490.846814 204.735705 
z
" style="fill:#1f958b;stroke:#000000;"/>
    <path clip-path="url(#p490a10a76c)" d="M 339.789322 452.9994 
L 392.045072 440.205123 
L 383.046896 265.747631 
z
" style="fill:#6ccd5a;stroke:#000000;"/>
    <path clip-path="url(#p490a10a76c)" d="M 177.338711 440.205121 
L 229.594461 452.9994 
L 186.336888 265.747631 
z
" style="fill:#6ccd5a;stroke:#000000;"/>
    <path clip-path="url(#p490a10a76c)" d="M 209.652407 171.150703 
L 163.248273 114.447646 
L 243.274102 101.165192 
z
" style="fill:#238a8d;stroke:#000000;"/>
    <path clip-path="url(#p490a10a76c)" d="M 359.731377 171.150703 
L 326.109682 101.165192 
L 406.135511 114.447646 
z
" style="fill:#238a8d;stroke:#000000;"/>
    <path clip-path="url(#p490a10a76c)" d="M 139.410197 182.226882 
L 209.652407 171.150703 
L 163.248273 114.447646 
z
" style="fill:#297a8e;stroke:#000000;"/>
    <path clip-path="url(#p490a10a76c)" d="M 359.731377 171.150703 
L 429.973587 182.226882 
L 406.135511 114.447646 
z
" style="fill:#297a8e;stroke:#000000;"/>
    <path clip-path="url(#p490a10a76c)" d="M 392.045072 440.205123 
L 383.046896 265.747631 
L 442.090714 268.529706 
z
" style="fill:#cde11d;stroke:#000000;"/>
    <path clip-path="url(#p490a10a76c)" d="M 177.338711 440.205121 
L 127.29307 268.529706 
L 186.336888 265.747631 
z
" style="fill:#cde11d;stroke:#000000;"/>
    <path clip-path="url(#p490a10a76c)" d="M 229.594461 452.9994 
L 284.691892 457.350635 
L 251.238776 264.835959 
z
" style="fill:#93d741;stroke:#000000;"/>
    <path clip-path="url(#p490a10a76c)" d="M 284.691892 457.350635 
L 339.789322 452.9994 
L 318.145008 264.835959 
z
" style="fill:#93d741;stroke:#000000;"/>
    <path clip-path="url(#p490a10a76c)" d="M 284.691892 167.711803 
L 243.274102 101.165192 
L 326.109682 101.165192 
z
" style="fill:#23898e;stroke:#000000;"/>
    <path clip-path="url(#p490a10a76c)" d="M 127.29307 268.529706 
L 186.336888 265.747631 
L 139.410197 182.226882 
z
" style="fill:#297a8e;stroke:#000000;"/>
    <path clip-path="url(#p490a10a76c)" d="M 383.046896 265.747631 
L 442.090714 268.529706 
L 429.973587 182.226882 
z
" style="fill:#297a8e;stroke:#000000;"/>
    <path clip-path="url(#p490a10a76c)" d="M 209.652407 171.150703 
L 284.691892 167.711803 
L 243.274102 101.165192 
z
" style="fill:#297b8e;stroke:#000000;"/>
    <path clip-path="url(#p490a10a76c)" d="M 284.691892 167.711803 
L 359.731377 171.150703 
L 326.109682 101.165192 
z
" style="fill:#297b8e;stroke:#000000;"/>
    <path clip-path="url(#p490a10a76c)" d="M 186.336888 265.747631 
L 139.410197 182.226882 
L 209.652407 171.150703 
z
" style="fill:#20928c;stroke:#000000;"/>
    <path clip-path="url(#p490a10a76c)" d="M 383.046896 265.747631 
L 359.731377 171.150703 
L 429.973587 182.226882 
z
" style="fill:#20928c;stroke:#000000;"/>
    <path clip-path="url(#p490a10a76c)" d="M 229.594461 452.9994 
L 186.336888 265.747631 
L 251.238776 264.835959 
z
" style="fill:#f1e51d;stroke:#000000;"/>
    <path clip-path="url(#p490a10a76c)" d="M 339.789322 452.9994 
L 318.145008 264.835959 
L 383.046896 265.747631 
z
" style="fill:#f1e51d;stroke:#000000;"/>
    <path clip-path="url(#p490a10a76c)" d="M 284.691892 457.350635 
L 251.238776 264.835959 
L 318.145008 264.835959 
z
" style="fill:#fde725;stroke:#000000;"/>
    <path clip-path="url(#p490a10a76c)" d="M 251.238776 264.835959 
L 209.652407 171.150703 
L 284.691892 167.711803 
z
" style="fill:#20928c;stroke:#000000;"/>
    <path clip-path="url(#p490a10a76c)" d="M 318.145008 264.835959 
L 284.691892 167.711803 
L 359.731377 171.150703 
z
" style="fill:#20928c;stroke:#000000;"/>
    <path clip-path="url(#p490a10a76c)" d="M 186.336888 265.747631 
L 251.238776 264.835959 
L 209.652407 171.150703 
z
" style="fill:#27808e;stroke:#000000;"/>
    <path clip-path="url(#p490a10a76c)" d="M 318.145008 264.835959 
L 383.046896 265.747631 
L 359.731377 171.150703 
z
" style="fill:#27808e;stroke:#000000;"/>
    <path clip-path="url(#p490a10a76c)" d="M 251.238776 264.835959 
L 318.145008 264.835959 
L 284.691892 167.711803 
z
" style="fill:#26828e;stroke:#000000;"/>
   </g>
  </g>
 </g>
 <defs>
  <clipPath id="p490a10a76c">
   <rect height="554.4" width="554.4" x="1.7763568394e-15" y="0.0"/>
  </clipPath>
 </defs>
</svg>
